HIERARCHY
ROOT Hips
{
	OFFSET	0.00	0.00	0.00
	CHANNELS 6 Xposition Yposition Zposition Zrotation Xrotation Yrotation
	JOINT LeftUpLeg
	{
		OFFSET	 0.126116	-0.014019	-0.065224
		CHANNELS 3 Zrotation Xrotation Yrotation
		JOINT LeftLeg
		{
			OFFSET	 0.000000	 0.000000	 0.569914
			CHANNELS 3 Zrotation Xrotation Yrotation
			JOINT LeftFoot
			{
				OFFSET	 0.000000	 0.000000	 0.544423
				CHANNELS 3 Zrotation Xrotation Yrotation
				JOINT LeftToeBase
				{
					OFFSET	 0.000000	 0.000000	 0.207117
					CHANNELS 3 Zrotation Xrotation Yrotation
					End Site
					{
						OFFSET	 0.000000	 0.000000	 0.207117
					}
				}
			}
		}
	}
	JOINT RightUpLeg
	{
		OFFSET	-0.124023	-0.008373	-0.065224
		CHANNELS 3 Zrotation Xrotation Yrotation
		JOINT RightLeg
		{
			OFFSET	 0.000000	 0.000000	 0.570047
			CHANNELS 3 Zrotation Xrotation Yrotation
			JOINT RightFoot
			{
				OFFSET	 0.000000	 0.000000	 0.544354
				CHANNELS 3 Zrotation Xrotation Yrotation
				JOINT RightToeBase
				{
					OFFSET	 0.000000	 0.000000	 0.207540
					CHANNELS 3 Zrotation Xrotation Yrotation
					End Site
					{
						OFFSET	 0.000000	 0.000000	 0.207540
					}
				}
			}
		}
	}
	JOINT Spine
	{
		OFFSET	 0.000184	-0.007763	 0.117403
		CHANNELS 3 Zrotation Xrotation Yrotation
		JOINT Spine1
		{
			OFFSET	 0.000000	 0.000000	 0.137269
			CHANNELS 3 Zrotation Xrotation Yrotation
			JOINT Spine2
			{
				OFFSET	 0.000000	 0.000000	 0.156879
				CHANNELS 3 Zrotation Xrotation Yrotation
				JOINT LeftShoulder
				{
					OFFSET	 0.080501	-0.002496	 0.160144
					CHANNELS 3 Zrotation Xrotation Yrotation
					JOINT LeftArm
					{
						OFFSET	 0.000000	 0.000000	 0.164363
						CHANNELS 3 Zrotation Xrotation Yrotation
						JOINT LeftForeArm
						{
							OFFSET	 0.000000	 0.000000	 0.364576
							CHANNELS 3 Zrotation Xrotation Yrotation
							JOINT LeftHand
							{
								OFFSET	 0.000000	 0.000000	 0.360812
								CHANNELS 3 Zrotation Xrotation Yrotation
								JOINT LeftHandIndex1
								{
									OFFSET	 0.000000	 0.000000	 0.086006
									CHANNELS 3 Zrotation Xrotation Yrotation
									JOINT LeftHandIndex2
									{
										OFFSET	 0.000000	 0.000000	 0.047236
										CHANNELS 3 Zrotation Xrotation Yrotation
										JOINT LeftHandIndex3
										{
											OFFSET	-0.004284	-0.000551	 0.038166
											CHANNELS 3 Zrotation Xrotation Yrotation
											End Site
											{
												OFFSET	-0.004284	-0.000551	 0.038166
											}
										}
									}
								}
							}
						}
					}
				}
				JOINT Neck
				{
					OFFSET	 0.000000	 0.000000	 0.176489
					CHANNELS 3 Zrotation Xrotation Yrotation
					JOINT Head
					{
						OFFSET	 0.000000	-0.001747	 0.077940
						CHANNELS 3 Zrotation Xrotation Yrotation
						End Site
						{
							OFFSET	 0.000000	-0.001747	 0.077940
						}
					}
				}
				JOINT RightShoulder
				{
					OFFSET	-0.080363	 0.000306	 0.159706
					CHANNELS 3 Zrotation Xrotation Yrotation
					JOINT RightArm
					{
						OFFSET	 0.000000	 0.000000	 0.164196
						CHANNELS 3 Zrotation Xrotation Yrotation
						JOINT RightForeArm
						{
							OFFSET	 0.000000	 0.000000	 0.365611
							CHANNELS 3 Zrotation Xrotation Yrotation
							JOINT RightHand
							{
								OFFSET	 0.000000	 0.000000	 0.360648
								CHANNELS 3 Zrotation Xrotation Yrotation
								JOINT RightHandIndex1
								{
									OFFSET	 0.000000	 0.000000	 0.069977
									CHANNELS 3 Zrotation Xrotation Yrotation
									JOINT RightHandIndex2
									{
										OFFSET	 0.000000	 0.000000	 0.052305
										CHANNELS 3 Zrotation Xrotation Yrotation
										JOINT RightHandIndex3
										{
											OFFSET	 0.009002	-0.000782	 0.042196
											CHANNELS 3 Zrotation Xrotation Yrotation
											End Site
											{
												OFFSET	 0.009002	-0.000782	 0.042196
											}
										}
									}
								}
							}
						}
					}
				}
			}
		}
	}
}
MOTION
Frames:    7
Frame Time: 0.03333334
 6.840473	 4.371202	-1.176100	-168.448900	-2.043235	-0.049427	 6.335680	-1.378634	-178.257500	-2.650744	-34.867330	 1.127568	 37.684310	 89.965740	-36.824550	-2.376533	 30.357690	-0.041728	 1.714643	-30.425150	 179.524500	 19.041600	-71.197420	 22.445800	-179.910900	 88.940010	-172.678600	 2.378241	 29.740660	 0.029523	 0.537415	 4.455337	 1.393611	 1.742849	-1.846755	 1.194989	 3.468542	-4.623769	 0.368516	-91.791600	 78.210300	 178.875200	 35.561920	 63.240860	-47.792000	-8.916715	-4.276055	-29.835200	 3.679758	-2.112515	-5.365959	-3.812334	 37.924440	-2.927599	-2.450526	 36.184240	 0.754587	-1.378229	 35.397820	-2.634230	-0.326224	 4.066896	-1.994102	 1.335424	-11.905850	-1.157589	 89.791000	 78.617260	 179.506200	-41.770420	 71.389530	 43.592750	 1.727739	-7.600433	 26.020450	-13.015080	-3.207024	 9.588093	 6.437017	 35.671460	-0.771858	 2.830251	 35.756010	-7.813440	-2.350882	 35.473990	 5.254307
 6.836236	 4.386486	-1.177042	-168.374800	-1.932226	-0.263033	 6.170003	-0.147882	-177.911100	-2.826688	-33.828950	 1.022233	 91.429370	 89.980220	-90.718130	-2.376529	 30.358430	-0.041744	 1.842458	-31.364630	 179.622100	 16.792190	-69.102320	 20.087320	-178.174000	 88.781630	-174.321400	 2.377832	 29.822270	 0.031315	 0.512334	 4.435819	 1.640226	 1.695348	-1.893684	 1.180787	 3.466323	-4.676423	 0.369860	-91.784320	 78.365910	 178.839500	 35.378090	 62.846440	-48.147340	-8.798088	-4.371138	-30.408460	 3.753017	-2.107940	-5.366706	-3.812334	 37.924440	-2.927599	-2.450526	 36.184240	 0.754587	-1.378229	 35.397820	-2.634230	-0.338706	 4.104153	-2.150051	 1.379855	-12.015710	-1.076630	 89.787850	 78.463290	 179.486200	-41.717830	 71.428620	 43.299700	 1.797702	-7.640918	 26.375260	-12.914680	-3.204167	 9.589948	 6.437017	 35.671460	-0.771858	 2.830251	 35.756010	-7.813440	-2.350882	 35.473990	 5.254307
 6.829906	 4.409969	-1.178251	-168.268600	-1.751560	-0.539083	 6.011897	 1.891498	-177.462000	-3.055650	-31.840780	 0.945454	 18.911070	 89.836870	-18.304040	-2.375864	 30.481830	-0.044485	 1.978034	-32.592830	 179.736600	 13.992510	-65.590050	 17.033100	-175.250500	 88.908910	-177.098600	 2.377720	 29.843630	 0.031785	 0.481884	 4.383265	 1.962899	 1.631133	-1.958236	 1.158909	 3.456255	-4.747366	 0.370908	-91.774000	 78.567720	 178.793500	 35.094530	 62.283720	-48.657140	-8.680743	-4.479334	-31.186150	 3.809955	-2.102265	-5.367683	-3.812334	 37.924440	-2.927599	-2.450526	 36.184240	 0.754587	-1.378229	 35.397820	-2.634230	-0.358873	 4.171973	-2.367741	 1.431090	-12.173870	-0.996202	 89.783490	 78.261860	 179.464200	-41.660970	 71.495560	 42.934540	 1.892689	-7.684538	 26.797970	-12.789350	-3.200710	 9.592059	 6.437017	 35.671460	-0.771858	 2.830251	 35.756010	-7.813440	-2.350882	 35.473990	 5.254307
 6.823980	 4.432739	-1.179228	-168.182000	-1.564005	-0.712507	 5.976293	 4.028336	-177.150800	-3.278001	-29.494860	 0.933947	 12.112270	 89.637920	-11.514950	-2.373720	 30.871000	-0.053177	 2.082568	-33.563870	 179.769900	 11.928750	-61.943630	 14.664270	-170.749900	 89.116180	 178.564200	 2.379146	 29.561190	 0.025568	 0.467942	 4.307510	 2.176091	 1.592104	-2.010927	 1.141902	 3.446053	-4.804413	 0.371516	-91.766360	 78.706670	 178.766100	 34.881570	 61.766670	-49.148960	-8.651878	-4.505934	-31.822060	 3.739732	-2.098034	-5.368571	-3.812334	 37.924440	-2.927599	-2.450526	 36.184240	 0.754587	-1.378229	 35.397820	-2.634230	-0.368567	 4.241803	-2.543930	 1.460621	-12.308970	-0.956382	 89.780290	 78.126210	 179.451500	-41.618970	 71.571980	 42.661150	 1.969335	-7.707269	 27.058030	-12.705920	-3.198585	 9.593294	 6.437017	 35.671460	-0.771858	 2.830251	 35.756010	-7.813440	-2.350882	 35.473990	 5.254307
 6.817910	 4.457379	-1.180150	-168.105100	-1.334492	-0.830044	 6.136634	 6.497725	-177.006200	-3.449600	-26.543300	 1.031604	 8.749496	 89.196910	-7.943051	-2.369946	 31.524210	-0.067868	 2.226247	-34.402990	 179.743900	 10.241710	-57.865960	 12.639710	-162.478200	 89.332950	 170.502000	 2.383414	 28.664730	 0.005983	 0.477777	 4.192207	 2.325604	 1.579656	-2.081331	 1.135504	 3.447059	-4.856301	 0.373172	-91.761440	 78.794140	 178.756700	 34.692200	 61.268830	-49.632090	-8.647236	-4.500744	-32.367370	 3.630517	-2.118810	-5.364934	-3.812334	 37.924440	-2.927599	-2.450526	 36.184240	 0.754587	-1.378229	 35.397820	-2.634230	-0.354156	 4.311895	-2.708944	 1.484436	-12.428120	-0.935502	 89.778250	 78.038600	 179.447400	-41.570160	 71.671400	 42.432920	 2.033772	-7.712045	 27.163560	-12.663320	-3.197952	 9.593689	 6.437017	 35.671460	-0.771858	 2.830251	 35.756010	-7.813440	-2.350882	 35.473990	 5.254307
 6.812572	 4.480401	-1.180928	-168.038200	-1.107356	-0.912418	 6.493604	 8.922619	-177.030300	-3.521968	-23.450070	 1.212184	 6.634320	 88.390390	-5.353584	-2.365207	 32.292910	-0.085368	 2.369785	-34.959820	 179.695000	 8.957078	-54.066220	 11.045850	-149.764800	 89.477730	 157.945500	 2.387127	 27.812620	-0.012416	 0.507608	 4.052686	 2.430552	 1.593207	-2.160008	 1.142423	 3.465930	-4.896809	 0.376432	-91.758130	 78.851680	 178.754000	 34.537220	 60.888450	-50.022780	-8.630268	-4.505023	-32.735230	 3.573118	-2.115151	-5.365680	-3.812334	 37.924440	-2.927599	-2.450526	 36.184240	 0.754587	-1.378229	 35.397820	-2.634230	-0.316732	 4.364163	-2.850185	 1.514667	-12.508350	-0.918908	 89.776960	 77.981580	 179.451600	-41.510250	 71.781870	 42.267540	 2.073728	-7.699089	 27.091270	-12.672540	-3.198703	 9.593204	 6.437017	 35.671460	-0.771858	 2.830251	 35.756010	-7.813440	-2.350882	 35.473990	 5.254307
 6.807137	 4.503481	-1.181683	-167.963400	-0.892304	-1.007212	 6.957651	 11.800740	-176.947600	-3.698635	-19.379450	 1.366620	 4.973863	 87.071370	-3.053562	-2.359143	 33.210690	-0.106551	 2.616186	-35.257270	 179.700700	 7.712324	-50.409500	 9.615491	-144.601500	 89.572500	 152.801900	 2.388768	 27.409610	-0.021048	 0.544752	 3.895600	 2.535922	 1.621074	-2.234588	 1.159995	 3.498912	-4.928434	 0.380975	-91.755520	 78.897750	 178.749100	 34.396410	 60.612510	-50.353830	-8.642888	-4.507215	-32.966630	 3.536864	-2.112932	-5.366142	-3.812334	 37.924440	-2.927599	-2.450526	 36.184240	 0.754587	-1.378229	 35.397820	-2.634230	-0.266844	 4.397109	-2.975233	 1.556103	-12.553340	-0.893546	 89.775970	 77.936260	 179.456600	-41.444400	 71.905320	 42.150680	 2.084917	-7.670100	 26.853360	-12.731350	-3.200894	 9.591929	 6.437017	 35.671460	-0.771858	 2.830251	 35.756010	-7.813440	-2.350882	 35.473990	 5.254307
